<svg id="Capa_1" enable-background="new 0 0 497 497" height="512" viewBox="0 0 497 497" width="512" xmlns="http://www.w3.org/2000/svg"><g><path d="m497 248.5c0 45.26-12.1 87.7-33.25 124.25l-90.99 91c-36.56 21.15-78.99 33.25-124.26 33.25-10.32 0-20.5-.63-30.5-1.86-33.82-4.13-65.54-15.06-93.75-31.39l-91-91c-21.15-36.55-33.25-78.99-33.25-124.25s12.1-87.7 33.25-124.25l91-91c28.21-16.33 59.93-27.26 93.75-31.39 10-1.23 20.18-1.86 30.5-1.86 45.26 0 87.7 12.1 124.25 33.25l91 91c21.15 36.55 33.25 78.99 33.25 124.25z" fill="#dcf5f8"/><path d="m497 248.5c0 45.26-12.1 87.7-33.25 124.25l-90.99 91c-36.56 21.15-78.99 33.25-124.26 33.25-10.32 0-20.5-.63-30.5-1.86 79.04-9.67 146.6-56.45 184.75-122.39 21.15-36.55 33.25-78.99 33.25-124.25s-12.1-87.7-33.25-124.25c-38.15-65.94-105.71-112.72-184.75-122.39 10-1.23 20.18-1.86 30.5-1.86 45.26 0 87.7 12.1 124.25 33.25l91 91c21.15 36.55 33.25 78.99 33.25 124.25z" fill="#b3edf2"/><path d="m463.75 124.25c-10.74 18.56-23.81 35.61-38.81 50.73-30.76 31.02-69.64 53.97-113.19 65.39-20.19 5.31-41.39 8.13-63.25 8.13-21.09 0-41.57-2.63-61.12-7.58-65.72-16.61-121.01-59.42-154.13-116.67 15.63-27.02 36.2-50.83 60.49-70.19 9.61-7.66 19.8-14.62 30.5-20.81h248.52c37.72 21.82 69.17 53.28 90.99 91z" fill="#e759aa"/><path d="m124.24 33.25c-10.7 6.19-20.89 13.15-30.5 20.81 55.3 44.05 91.38 111.21 93.64 186.86 19.55 4.95 40.03 7.58 61.12 7.58v-215.25z" fill="#e03d9c"/><path d="m463.75 124.25c-10.74 18.56-23.81 35.61-38.81 50.73-5.52-17.86-13-34.85-22.19-50.73-21.83-37.73-53.28-69.18-91.01-91h61.02c37.72 21.82 69.17 53.28 90.99 91z" fill="#e03d9c"/><path d="m463.75 372.75c-21.82 37.73-53.28 69.18-91 91h-248.51c-10.7-6.19-20.89-13.15-30.5-20.81-24.29-19.36-44.86-43.17-60.49-70.19 33.12-57.25 88.41-100.06 154.13-116.67 19.55-4.95 40.03-7.58 61.12-7.58 21.86 0 43.06 2.82 63.25 8.13 43.55 11.42 82.43 34.37 113.19 65.39 15 15.12 28.07 32.17 38.81 50.73z" fill="#e759aa"/><path d="m248.5 248.5c-21.09 0-41.57 2.63-61.12 7.58-2.26 75.65-38.34 142.81-93.64 186.86 9.61 7.66 19.8 14.62 30.5 20.81h124.26z" fill="#e03d9c"/><path d="m463.75 372.75c-21.82 37.73-53.28 69.18-91 91h-61.01c37.73-21.82 69.18-53.27 91.01-91 9.19-15.88 16.67-32.87 22.19-50.73 15 15.12 28.07 32.17 38.81 50.73z" fill="#e03d9c"/><g fill="#dcf5f8"><path d="m372.75 463.75c-36.55 21.15-78.99 33.25-124.25 33.25-10.32 0-20.5-.63-30.5-1.86-33.82-4.13-65.54-15.06-93.75-31.39 74.28-42.97 124.25-123.27 124.25-215.25 0 78.74 36.62 148.92 93.76 194.44 9.61 7.66 19.8 14.62 30.49 20.81z"/><path d="m372.75 33.25c-10.69 6.19-20.88 13.15-30.49 20.81-57.14 45.52-93.76 115.7-93.76 194.44 0-91.98-49.97-172.28-124.25-215.25 28.21-16.33 59.93-27.26 93.75-31.39 10-1.23 20.18-1.86 30.5-1.86 45.26 0 87.7 12.1 124.25 33.25z"/></g><path d="m342.26 442.94c9.61 7.66 19.8 14.62 30.49 20.81-36.55 21.15-78.99 33.25-124.25 33.25-10.32 0-20.5-.63-30.5-1.86 46.65-5.71 89.29-24.34 124.26-52.2z" fill="#b3edf2"/><path d="m342.26 54.06c-34.97-27.86-77.61-46.49-124.26-52.2 10-1.23 20.18-1.86 30.5-1.86 45.26 0 87.7 12.1 124.25 33.25-10.69 6.19-20.88 13.15-30.49 20.81z" fill="#b3edf2"/><circle cx="248.5" cy="248.5" fill="#2ed1e2" r="123.254"/><path d="m371.75 248.5c0 68.07-55.18 123.25-123.25 123.25-7.91 0-15.64-.74-23.13-2.16 57.01-10.84 100.11-60.93 100.11-121.09s-43.1-110.25-100.11-121.09c7.49-1.42 15.22-2.16 23.13-2.16 68.07 0 123.25 55.18 123.25 123.25z" fill="#03bed7"/><path d="m194.318 244.105-6.101-18.375c-2.631-7.925 2.244-16.37 10.423-18.053 23.819-4.056 24.039-4.213 39.437-22.769 5.547-6.241 15.299-6.241 20.846 0 15.422 18.6 15.668 18.711 39.437 22.769 8.179 1.683 13.054 10.129 10.423 18.053-8.369 22.418-8.343 23.162 0 45.538 2.631 7.925-2.244 16.37-10.423 18.053-23.819 4.056-24.039 4.213-39.437 22.769-5.547 6.241-15.299 6.241-20.846 0-15.422-18.6-15.668-18.711-39.437-22.769-8.179-1.683-13.054-10.129-10.423-18.053 1.388-6.065 8.978-20.931 6.101-27.163z" fill="#ffd15b"/><path d="m308.78 271.27c2.63 7.92-2.24 16.37-10.42 18.05-23.82 4.06-24.04 4.22-39.44 22.77-5.54 6.24-15.3 6.24-20.84 0-1.8-2.16-3.38-4.08-4.83-5.77 10.94-12.87 13.57-13.41 34.61-17 8.18-1.68 13.05-10.13 10.42-18.05-8.34-22.38-8.37-23.12 0-45.54 2.63-7.92-2.24-16.37-10.42-18.05-21.01-3.59-23.64-4.09-34.61-17 1.44-1.7 3.03-3.61 4.83-5.77 5.54-6.24 15.3-6.24 20.84 0 15.43 18.6 15.67 18.71 39.44 22.77 8.18 1.68 13.05 10.13 10.42 18.05-8.37 22.42-8.34 23.16 0 45.54z" fill="#ffc344"/></g></svg>